# xmcd
#
# Track frame offsets: 
#        150
#        12659
#        22243
#        31809
#        41894
#        52366
#        62473
#        72285
#        81689
#        90478
#        102007
#        114587
#        124390
#        134445
#        148422
#        158779
#        167937
#        179266
#        189895
#        201114
#        212741
#        226670
#        237208
#        246585
#
# Disc length: 3418 seconds
#
# Revision: 0
# Processed by: cddbd v1.5.2PL0 Copyright (c) Steve Scherf et al.
# Submitted via: ExactAudioCopy v1.0b3
#
DISCID=680d5818
DTITLE=Chet Atkins - Original Albums
DYEAR=1960
DGENRE=Instrumental
TTITLE0=Lambeth Walk
TTITLE1=Theme From "A Summer Place"
TTITLE2=Whispering
TTITLE3=In A Little Spanish Town
TTITLE4=Sleep
TTITLE5=Marie
TTITLE6=Hot Mocking Bird
TTITLE7=Lullaby of Birdland
TTITLE8=Tammy
TTITLE9=Goofus
TTITLE10=Bonita
TTITLE11=Whatever will be (Que Sera, Sera)
TTITLE12=Salty Dog Rag
TTITLE13=I'm A Pilgrim
TTITLE14=Trambone
TTITLE15=Steel Guitar Rag
TTITLE16=Little Feet
TTITLE17=Blue Steel Blues
TTITLE18=Windy and Warm
TTITLE19=I ain't gonna work tomorrow
TTITLE20=Never on Sunday
TTITLE21=The Girl Friend of the Whirling Dervish
TTITLE22=Give the World a smile
TTITLE23=Tuxedo Junction
EXTD=
EXTT0=
EXTT1=
EXTT2=
EXTT3=
EXTT4=
EXTT5=
EXTT6=
EXTT7=
EXTT8=
EXTT9=
EXTT10=
EXTT11=
EXTT12=
EXTT13=
EXTT14=
EXTT15=
EXTT16=
EXTT17=
EXTT18=
EXTT19=
EXTT20=
EXTT21=
EXTT22=
EXTT23=
PLAYORDER=
